<svg xmlns="http://www.w3.org/2000/svg" style="display: none;"><symbol id="dog" viewBox="0 0 512 512"><title>dog</title><g> <g> <path d="M352.536,63.964c-27.29-19.54-60.691-30.951-96.536-30.951c-35.845,0-69.245,11.411-96.536,30.951 C71.273,65.496,0,137.568,0,225.954v61.966c0,27.523,22.424,49.914,49.986,49.914c8.667,0,16.823-2.217,23.936-6.107l-0.365,3.183 c-0.115,1.01-0.217,2.018-0.307,3.035c-1.78,20.398,2.741,40.058,13.076,56.851c9.549,15.516,23.56,27.954,40.517,35.97 c13.347,6.31,27.44,9.387,41.363,9.387c4.775,0,9.526-0.376,14.223-1.094c15.625,24.014,42.698,39.928,73.422,39.928h0.299 c30.724,0,57.798-15.914,73.422-39.929c18.389,2.811,37.663,0.181,55.586-8.292c16.957-8.016,30.967-20.455,40.516-35.97 c10.335-16.793,14.856-36.453,13.076-56.845c-0.088-1.017-0.191-2.037-0.308-3.05l-0.364-3.174 c7.113,3.891,15.269,6.107,23.936,6.107c27.563,0,49.986-22.391,49.986-49.914v-61.966C512,137.568,440.727,65.497,352.536,63.964 z M93.918,164.08c-14.873,16.371-23.946,38.084-23.946,61.874v61.966c0,10.98-8.966,19.914-19.985,19.914 c-11.021,0-19.986-8.934-19.986-19.914v-61.966c0-59.087,39.107-109.231,92.853-126.026 C108.99,118.589,98.939,140.33,93.918,164.08z M256.15,448.986h-0.299v-0.001c-17.333,0-32.889-7.716-43.446-19.88 c7.963-4.238,15.439-9.662,22.173-16.253L256,391.885l21.422,20.967c6.735,6.592,14.213,12.012,22.177,16.25 C289.041,441.269,273.485,448.986,256.15,448.986z M372.337,403.643c-20.027,9.467-49.966,11.225-73.931-12.23l-25.851-25.302 h7.373c24.813,0,45-20.187,45-45v-14.605c0-24.813-20.187-45-45-45h-47.857c-24.813,0-45,20.187-45,45v14.605 c0,24.813,20.187,45,45,45h7.373l-25.851,25.302c-23.966,23.456-53.904,21.696-73.93,12.23 c-19.516-9.226-39.359-30.644-36.528-63.08c0.065-0.748,0.142-1.497,0.227-2.239l17.843-155.354 C129.059,114.583,187.008,63.013,256,63.013s126.942,51.57,134.796,119.957l17.843,155.361c0.086,0.74,0.16,1.478,0.225,2.221 C411.695,372.999,391.852,394.417,372.337,403.643z M232.071,336.111c-8.271,0-15-6.729-15-15v-14.605c0-8.271,6.729-15,15-15 h47.857c8.271,0,15,6.729,15,15v14.605c0,8.271-6.729,15-15,15H232.071z M482,287.92c0,10.98-8.966,19.914-19.986,19.914 c-11.02,0-19.985-8.934-19.985-19.914v-61.966c0-23.789-9.073-45.501-23.944-61.872c-5.021-23.75-15.073-45.491-28.937-64.153 C442.894,116.723,482,166.867,482,225.954V287.92z"/> </g> </g><g> <g> <path d="M198.347,161.528c-8.284,0-15,6.716-15,15v28.115c0,8.284,6.716,15,15,15s15-6.716,15-15v-28.115 C213.347,168.244,206.631,161.528,198.347,161.528z"/> </g> </g><g> <g> <path d="M313.653,161.528c-8.284,0-15,6.716-15,15v28.115c0,8.284,6.716,15,15,15s15-6.716,15-15v-28.115 C328.653,168.244,321.937,161.528,313.653,161.528z"/> </g> </g></symbol><symbol id="bone" viewBox="0 0 512.001 512.001"><title>bone</title><path d="M494.678,256.001C505.828,242.667,512,225.859,512,207.965c0-41.419-33.697-75.116-75.116-75.116 c-36.285,0-66.643,25.858-73.612,60.116H148.728c-6.969-34.258-37.327-60.116-73.612-60.116C33.697,132.85,0,166.546,0,207.965 c0,17.894,6.172,34.702,17.323,48.036C6.172,269.335,0,286.143,0,304.036c0,41.419,33.697,75.116,75.116,75.116 c36.285,0,66.643-25.858,73.612-60.116h214.545c6.969,34.258,37.327,60.116,73.612,60.116c41.419,0,75.116-33.697,75.116-75.116 C512.001,286.142,505.829,269.335,494.678,256.001z M464,267.98c11.439,8.622,18,21.763,18,36.056 c0,24.877-20.239,45.116-45.116,45.116c-24.877,0-45.116-20.239-45.116-45.116c0-8.284-6.716-15-15-15H135.232 c-8.284,0-15,6.716-15,15c0,24.877-20.239,45.116-45.116,45.116C50.239,349.152,30,328.913,30,304.036 c0-14.293,6.561-27.435,18-36.056c3.761-2.834,5.972-7.27,5.972-11.979c0-4.709-2.211-9.145-5.972-11.979 c-11.439-8.622-18-21.764-18-36.057c0-24.877,20.239-45.116,45.116-45.116c24.877,0,45.116,20.239,45.116,45.116 c0,8.284,6.716,15,15,15h241.536c8.284,0,15-6.716,15-15c0-24.877,20.239-45.116,45.116-45.116 c24.877,0,45.116,20.239,45.116,45.116c0,14.293-6.561,27.435-18,36.057c-3.761,2.834-5.972,7.27-5.972,11.979 C458.028,260.71,460.239,265.146,464,267.98z"/></symbol><symbol id="cat" viewBox="0 0 512.001 512.001"><title>cat</title><g> <g> <path d="M331.137,340.558c-8.284,0-15,6.716-15,15c0,7.103-4.905,10.366-7.014,11.439c-2.108,1.074-7.634,3.118-13.377-1.062 l-14.258-10.378L271,347.924v-8.775c24.036-0.889,43.318-20.709,43.318-45.007c0-24.813-20.187-45-45-45h-26.637 c-24.813,0-45,20.187-45,45v0.05c0,24.25,19.282,44.068,43.318,44.957v8.775l-10.488,7.634l-14.257,10.378 c-5.743,4.182-11.268,2.135-13.377,1.062c-2.108-1.073-7.014-4.337-7.014-11.439c0-8.284-6.716-15-15-15s-15,6.716-15,15 c0,16.199,8.969,30.827,23.405,38.176c14.438,7.348,31.543,5.991,44.641-3.543l22.09-16.08l22.092,16.081 c7.497,5.456,16.307,8.234,25.178,8.234c6.627,0,13.288-1.551,19.462-4.692c14.437-7.349,23.405-21.977,23.405-38.176 C346.137,347.274,339.421,340.558,331.137,340.558z M242.682,309.191c-8.272,0-15-6.729-15-15v-0.05c0-8.271,6.729-15,15-15 h26.637c8.271,0,15,6.729,15,15.05c0,8.271-6.729,15-15,15H242.682z"/> </g> </g><g> <g> <path d="M199.174,181.763c-8.284,0-15,6.716-15,15v20.574c0,8.285,6.716,15,15,15s15-6.716,15-15v-20.574 C214.174,188.479,207.458,181.763,199.174,181.763z"/> </g> </g><g> <g> <path d="M312.827,181.763c-8.284,0-15,6.716-15,15v20.574c0,8.285,6.715,15,15,15c8.284,0,15-6.716,15-15v-20.574 C327.827,188.479,321.111,181.763,312.827,181.763z"/> </g> </g><g> <g> <path d="M511.954,325.489c-0.645-8.259-7.88-14.427-16.121-13.787l-29.288,2.286c1.305-5.86,2.356-11.794,3.172-17.785 l27.07-2.112c8.259-0.645,14.432-7.862,13.787-16.121c-0.645-8.259-7.881-14.445-16.121-13.787l-22.73,1.774 c-0.125-39.655-11.031-78.166-31.62-111.795l17.703-107.084c0.75-4.537-0.622-9.167-3.724-12.563s-7.592-5.176-12.176-4.844 l-0.904,0.067c-36.904,2.721-71.656,15.88-100.976,38.162C313.446,56.625,285.223,50.915,256,50.915 c-29.228,0-57.453,5.712-84.037,16.99C142.367,45.412,107.264,32.222,70.02,29.666c-4.581-0.315-9.043,1.482-12.127,4.876 c-3.085,3.393-4.447,8.011-3.699,12.535l17.703,107.084c-20.533,33.542-31.449,71.97-31.623,111.52 c0,0.092,0.002,0.184,0.002,0.276l-22.729-1.774c-8.25-0.636-15.477,5.526-16.121,13.787c-0.645,8.259,5.528,15.477,13.787,16.121 l27.084,2.114c0.823,5.99,1.89,11.924,3.207,17.787l-29.337-2.29c-8.248-0.635-15.477,5.526-16.121,13.787 c-0.645,8.259,5.527,15.477,13.787,16.121l41.1,3.208c10.648,27.25,26.912,52.315,48.228,73.759 c40.796,41.043,94.946,63.699,152.476,63.794c0.123,0,0.244,0,0.367,0c57.558,0,111.674-22.387,152.413-63.059 c21.597-21.561,38.057-46.889,48.775-74.504l40.976-3.198C506.427,340.965,512.599,333.748,511.954,325.489z M441.707,268.299 l-45.818,3.575c-8.259,0.645-14.432,7.862-13.787,16.121c0.613,7.862,7.183,13.834,14.938,13.834c0.392,0,0.787-0.016,1.184-0.047 l40.781-3.182c-1.04,6.032-2.373,11.988-3.994,17.849l-37.742,2.946c-8.26,0.645-14.432,7.862-13.787,16.121 c0.613,7.862,7.183,13.834,14.938,13.834c0.392,0,0.787-0.016,1.184-0.047l23.718-1.851c-8.972,18.541-21.091,35.644-36.101,50.63 c-35.076,35.019-81.662,54.291-131.22,54.289c-0.104,0-0.213,0-0.316,0c-49.5-0.082-96.111-19.594-131.248-54.942 c-14.767-14.856-26.712-31.728-35.599-49.965l23.558,1.839c0.397,0.031,0.791,0.047,1.184,0.047 c7.754,0,14.324-5.972,14.938-13.834c0.645-8.259-5.527-15.477-13.787-16.121l-37.667-2.94 c-1.636-5.865-2.984-11.821-4.034-17.852l40.746,3.18c0.397,0.031,0.791,0.047,1.184,0.047c7.754,0,14.324-5.972,14.938-13.834 c0.645-8.259-5.528-15.477-13.787-16.121l-45.816-3.575c-0.007-0.829-0.023-1.656-0.02-2.486 c0.157-35.755,10.506-70.436,29.927-100.293c2.042-3.14,2.836-6.93,2.225-10.625L87.076,62.052 c26.059,4.948,50.379,16.263,71.188,33.246l2.029,1.656c4.492,3.666,10.698,4.416,15.936,1.921 c13.319-6.345,27.159-11.008,41.398-13.997v43.874c0,8.284,6.716,15,15,15s15-6.716,15-15V81.114 c2.78-0.122,5.569-0.199,8.372-0.199c2.803,0,5.592,0.078,8.372,0.199v47.638c0,8.284,6.716,15,15,15s15-6.716,15-15V84.879 c14.24,2.989,28.079,7.652,41.398,13.997c5.259,2.504,11.494,1.739,15.99-1.966l1.365-1.125 c20.933-17.25,45.47-28.736,71.797-33.731l-15.349,92.841c-0.611,3.695,0.183,7.486,2.226,10.626 c19.579,30.098,29.929,65.065,29.929,101.122C441.727,267.196,441.712,267.747,441.707,268.299z"/> </g> </g></symbol><symbol id="dog-house" viewBox="0 0 512 512"><title>dog-house</title><g> <g> <path d="M485.821,215.042L286.505,12.771C278.507,4.655,267.388,0,256,0c-11.388,0-22.507,4.655-30.504,12.771L26.179,215.042 C9.595,231.87,9.77,259.078,26.57,275.693c8.146,8.056,18.935,12.449,30.389,12.378c7.673-0.05,15.019-2.111,21.454-5.915V497 c0,8.284,6.716,15,15,15h325.173c8.284,0,15-6.716,15-15V282.16c6.513,3.851,13.957,5.912,21.731,5.912h0.001 c11.346-0.002,22.039-4.397,30.111-12.38C502.229,259.078,502.405,231.87,485.821,215.042z M303,482h-94v-72.152 c0-20.182,16.378-36.601,36.509-36.601h20.982c20.131,0,36.509,16.419,36.509,36.601V482z M403.586,482H333v-72.152 c0-36.724-29.836-66.601-66.509-66.601h-20.982c-36.673,0-66.509,29.877-66.509,66.601V482h-70.586V253.761l64.685-65.644 L256,103.987l82.901,84.13l64.685,65.644V482z M464.335,254.361c-2.419,2.393-5.623,3.71-9.019,3.711 c-3.459,0-6.704-1.36-9.137-3.828L266.684,72.088c-2.819-2.861-6.667-4.472-10.684-4.472c-4.017,0-7.865,1.61-10.684,4.472 L65.82,254.244c-2.411,2.446-5.626,3.806-9.054,3.827c-0.028,0-0.057,0-0.085,0c-3.396,0-6.595-1.315-9.016-3.709 c-5.059-5.003-5.112-13.196-0.118-18.264l199.317-202.27C249.261,31.396,252.591,30,256,30c3.409,0,6.739,1.396,9.136,3.828 l199.316,202.271C469.446,241.166,469.393,249.359,464.335,254.361z"/> </g> </g><g> <g> <path d="M355.025,247.881c0-23.43-19.039-42.491-42.442-42.491c-18.13,0-33.643,11.442-39.712,27.491h-33.743 c-6.069-16.049-21.582-27.491-39.712-27.491c-23.402,0-42.442,19.062-42.442,42.491c0,7.777,2.173,15.356,6.107,21.907 c-3.963,6.53-6.107,14.089-6.107,22.026c0,23.43,19.04,42.491,42.442,42.491c18.13,0,33.643-11.442,39.712-27.491h33.743 c6.069,16.049,21.582,27.491,39.712,27.491c23.402,0,42.442-19.062,42.442-42.491c0-7.938-2.144-15.496-6.107-22.026 C352.852,263.237,355.025,255.658,355.025,247.881z M320.043,281.818c3.166,2.391,4.982,6.034,4.982,9.996 c0,6.888-5.582,12.491-12.442,12.491c-6.86,0.001-12.442-5.603-12.442-12.491c0-8.284-6.716-15-15-15h-58.282 c-8.284,0-15,6.716-15,15c0,6.888-5.582,12.491-12.442,12.491s-12.442-5.604-12.442-12.491c0-3.962,1.816-7.605,4.982-9.996 c3.754-2.835,5.961-7.267,5.961-11.972c0-4.704-2.208-9.137-5.962-11.971c-3.166-2.39-4.981-6.032-4.981-9.995 c0-6.888,5.582-12.491,12.442-12.491c6.861,0,12.442,5.604,12.442,12.491c0,8.284,6.716,15,15,15h58.282c8.284,0,15-6.716,15-15 c0-6.888,5.582-12.491,12.442-12.491s12.442,5.604,12.442,12.491c0,3.963-1.815,7.605-4.981,9.995 c-3.755,2.834-5.962,7.267-5.962,11.971C314.082,274.551,316.289,278.983,320.043,281.818z"/> </g> </g></symbol><symbol id="parrot" viewBox="0 0 512.001 512.001"><title>parrot</title><g> <g> <path d="M363.988,96.983h-9.859c-14.781-22.469-39.634-37.746-68.088-39.352c-17.872-6.146-30.337-23.255-30.337-42.644 C255.704,6.71,248.994,0,240.716,0c-8.277,0-14.988,6.71-14.988,14.988c0,19.066,7.265,36.808,19.355,50.252 c-0.038,0.017-0.076,0.036-0.114,0.053c-14.593-0.559-26.294-12.653-26.294-27.447c0-8.277-6.71-14.988-14.988-14.988 S188.7,29.568,188.7,37.845c0,20.612,10.892,38.716,27.207,48.855c-13.827,15.465-22.248,35.86-22.248,58.189v56.972 c-5.744,2.541-11.247,5.726-16.396,9.574c-17.699,13.226-29.303,32.536-32.673,54.372l-16.009,103.717l-56.101,38.15 c-11.293,7.679-15.57,21.395-10.645,34.132c4.399,11.382,14.761,18.398,26.564,18.397c1.406,0,2.835-0.1,4.273-0.304l22.448-3.178 l-0.264,1.709c-2.795,18.106,6.752,34.853,23.756,41.673c4.862,1.95,9.843,2.893,14.724,2.893 c12.189,0,23.751-5.876,31.244-16.601l30.623-43.843l15.408-2.182v56.646c0,8.277,6.71,14.988,14.988,14.988h35.076 c8.277,0,14.988-6.711,14.988-14.988s-6.711-14.988-14.988-14.988h-5.808h-14.28v-36.853v-13.7 c62.701-21.608,107.874-81.197,107.874-151.144v-31.843c22.572-6.495,41.94-21.849,53.338-43.223l2.6-4.874h12.797 c8.277,0,14.988-6.71,14.988-14.988C452.186,136.648,412.62,96.983,363.988,96.983z M119.9,425.768l-26.172,3.705l28.602-19.451 L119.9,425.768z M160.009,469.226c-3.526,5.049-8.333,3.817-10.236,3.053c-1.903-0.763-6.229-3.195-5.291-9.279l29.732-192.621 c4.446-28.801,31.556-49.064,60.441-45.165c18.767,2.533,34.514,14.398,42.122,31.74s5.677,36.963-5.166,52.488L160.009,469.226z M338.49,280.329c-0.001,60.569-41.695,111.578-97.884,125.855l55.582-79.579c16.877-24.164,19.883-54.705,8.04-81.696 c-11.843-26.992-36.352-45.459-65.561-49.401c-5.033-0.678-10.058-0.881-15.032-0.664v-49.956 c0-31.665,25.762-57.427,57.428-57.427c31.666,0,57.427,25.761,57.427,57.427V280.329z M368.464,216.575V200.39h20.781 C383.613,207.361,376.482,212.866,368.464,216.575z M415.409,170.415h-46.944v-25.526c0-6.122-0.635-12.098-1.839-17.868 c25.78,1.16,47.251,19.225,53.645,43.394H415.409z"/> </g> </g><g> <g> <ellipse cx="299.704" cy="142.143" rx="14.988" ry="15.028"/> </g> </g></symbol><symbol id="bird" viewBox="0 0 512 512"><title>bird</title><g> <g> <path d="M464.831,92.831h-14.753c-14.938-39.865-53.428-68.319-98.442-68.319h-8.052c-57.945,0-105.086,47.142-105.086,105.086 v44.464c-19.617-4.474-40.047-2.419-58.641,6.112L26.511,250.537c-18.807,8.629-29.216,28.15-25.901,48.575 c3.315,20.425,19.364,35.651,39.934,37.89l19.75,2.149c10.534,20.417,24.919,38.857,42.55,54.195 c26.583,23.125,59.159,37.921,93.701,42.905v21.238h-6.024c-8.284,0-15,6.716-15,15s6.716,15,15,15h41.192c8.284,0,15-6.716,15-15 s-6.716-15-15-15h-5.168v-19.354h35.003c107.619,0,195.173-87.555,195.173-195.173v-62.413H497c8.284,0,15-6.716,15-15v-25.546 C512,113.992,490.84,92.831,464.831,92.831z M238.496,408.133h-15.852c-50.695,0-96.751-25.498-124.699-64.886l110.326,12.005 c3.465,0.377,6.906,0.563,10.322,0.563c6.784,0,13.447-0.743,19.903-2.171V408.133z M211.516,325.428L43.789,307.177 c-10.841-1.179-13.125-10.15-13.566-12.871c-0.442-2.722-1.113-11.954,8.799-16.502v-0.001l153.344-70.362 c8.354-3.833,17.123-5.646,25.763-5.646c23.498,0,46.02,13.422,56.444,36.14c9.428,20.548,7.166,43.766-6.053,62.107 C255.301,318.384,233.992,327.873,211.516,325.428z M426.72,242.96c0.002,88.747-70.359,161.372-158.224,165.028V340.99 c9.281-6.092,17.548-13.953,24.362-23.407c19.615-27.216,22.973-61.667,8.982-92.158c-7.358-16.036-18.901-29.303-33.344-38.687 V129.6c0-41.403,33.684-75.087,75.087-75.087h8.052c21.047,0,40.088,8.717,53.735,22.715h-30.378 c-39.021,0-70.768,31.746-70.768,70.768s31.746,70.768,70.768,70.768h51.729V242.96z M426.722,188.762h-51.729 c-22.479,0-40.768-18.288-40.768-40.768s18.288-40.768,40.768-40.768h48.324v0.001c2.211,7.069,3.405,14.584,3.405,22.372V188.762 z M456.721,150.548V129.6c0-2.274-0.081-4.53-0.224-6.769h8.333c9.468,0,17.17,7.703,17.17,17.17v10.547H456.721z"/> </g> </g><g> <g> <circle cx="383.608" cy="136.689" r="15.01"/> </g> </g></symbol><symbol id="carrier" viewBox="0 0 512 512"><title>carrier</title><path d="M498.773,208.49l-23.676-79.711c-6.588-22.179-19.872-41.215-38.415-55.051c-18.543-13.837-40.575-21.15-63.711-21.15 h-40.199V45c0-24.813-20.187-45-45-45H224.23c-24.813,0-45,20.187-45,45v7.578h-40.2c-23.137,0-45.168,7.313-63.711,21.15 C56.776,87.564,43.492,106.6,36.904,128.779L13.227,208.49C-1.044,256.535-2.222,307.646,9.821,356.3l18.505,74.762 C40.122,478.717,82.648,512,131.742,512h248.517c49.094,0,91.62-33.283,103.416-80.938L502.18,356.3 C514.222,307.646,513.044,256.535,498.773,208.49z M209.229,45c0-8.271,6.729-15,15-15h63.542c8.271,0,15,6.729,15,15v7.578 h-93.542V45z M65.661,137.322c9.574-32.232,39.745-54.744,73.369-54.744h233.94c33.624,0,63.794,22.512,73.369,54.743 l8.491,28.588h-47.987c-0.125,0-0.246,0.016-0.37,0.019l-3.354-11.292c-5.838-19.654-24.236-33.382-44.74-33.382H153.621 c-20.504,0-38.902,13.728-44.74,33.382l-3.354,11.292c-0.124-0.003-0.245-0.019-0.37-0.019H57.17L65.661,137.322z M327.878,349.273h65.477l-12.719,51.385c-1.846,7.457-8.501,12.666-16.184,12.666h-36.574V349.273z M327.877,215.333v-64.079 h30.502c7.325,0,13.896,4.903,15.982,11.924l15.491,52.155H327.877z M327.879,319.273v-73.94h70.805 c1.923,7.229,3.335,14.566,4.226,21.956h-23.172c-8.284,0-15,6.716-15,15s6.716,15,15,15h23.948 c-0.499,7.372-1.498,14.718-3.019,21.984H327.879z M216,319.273v-73.94h81.878v73.94H216z M297.878,349.273v64.051H216v-64.051 H297.878z M216,215.333v-64.079h81.878v64.079H216z M113.532,319.273c-0.737,0-1.456,0.071-2.165,0.174 c-5.158-24.5-4.487-49.922,1.952-74.125c0.072,0.001,0.141,0.011,0.213,0.011H186v73.94H113.532z M186,349.273v64.051h-38.453 c-7.683,0-14.338-5.209-16.184-12.666l-12.719-51.385H186z M122.147,215.333l15.491-52.154 c2.086-7.021,8.658-11.925,15.982-11.925H186v64.079H122.147z M473.058,349.091l-18.505,74.762 C446.079,458.089,415.527,482,380.258,482H131.742c-35.269,0-65.82-23.911-74.294-58.147l-18.505-74.762 c-10.759-43.468-9.707-89.133,3.043-132.059l6.274-21.123h48.362l-10.829,36.459c-9.631,32.425-10.426,66.918-2.299,99.752 l18.749,75.747c5.168,20.877,23.798,35.457,45.305,35.457h216.905c21.507,0,40.137-14.58,45.305-35.457l18.749-75.748 c2.837-11.46,4.561-23.124,5.227-34.83h12.939c8.284,0,15-6.716,15-15s-6.716-15-15-15h-13.6 c-1.195-11.788-3.469-23.484-6.866-34.921l-10.829-36.459h48.362l6.274,21.123C482.765,259.958,483.817,305.623,473.058,349.091z"/></symbol><symbol id="fishbowl" viewBox="0 0 512 512"><title>fishbowl</title><g> <g> <path d="M446.46,92.443l-52.031-54.608h0.872c8.281,0,14.994-6.713,14.994-14.994c0-8.281-6.714-14.994-14.994-14.994H116.699 c-8.281,0-14.994,6.714-14.994,14.994c0,8.281,6.714,14.994,14.994,14.994h0.872L65.54,92.443 c-87.386,91.714-87.386,235.399,0,327.114l4.823,5.061c21.507,22.573,46.531,40.753,74.492,54.18 c-2.578,2.693-4.171,6.338-4.171,10.36c0,8.281,6.714,14.994,14.994,14.994h200.644c8.281,0,14.994-6.714,14.994-14.994 c0-4.022-1.593-7.667-4.171-10.36c27.961-13.427,52.985-31.607,74.492-54.179l4.823-5.062 C533.846,327.842,533.846,184.157,446.46,92.443z M424.749,398.869l-4.823,5.062C377.398,448.564,317.65,474.163,256,474.163 S134.601,448.564,92.074,403.93l-4.823-5.061c-76.333-80.114-76.333-205.626,0-285.74l71.741-75.294h194.016l71.741,75.294 C501.081,193.244,501.081,318.756,424.749,398.869z"/> </g> </g><g> <g> <path d="M188.783,177.686c-21.652,0-39.267,17.615-39.267,39.267s17.615,39.267,39.267,39.267s39.266-17.615,39.266-39.267 S210.435,177.686,188.783,177.686z M188.783,226.232c-5.116,0-9.279-4.162-9.279-9.279s4.162-9.279,9.279-9.279 s9.278,4.162,9.278,9.279S193.899,226.232,188.783,226.232z"/> </g> </g><g> <g> <path d="M251.803,72.929c-31.167,0-56.523,25.357-56.523,56.523s25.356,56.523,56.523,56.523 c31.166,0,56.522-25.357,56.522-56.523S282.97,72.929,251.803,72.929z M251.803,155.986c-14.632,0-26.534-11.904-26.534-26.534 s11.903-26.534,26.534-26.534c14.631,0,26.533,11.904,26.533,26.534S266.434,155.986,251.803,155.986z"/> </g> </g><g> <g> <path d="M383.313,341.286l-9.85-8.584l-15.339-13.367l15.339-13.366l9.85-8.584c6.243-5.44,6.893-14.911,1.453-21.156 c-5.44-6.245-14.913-6.893-21.155-1.454l-24.642,21.472c-17.562-16.576-51.283-42.351-91.17-42.351 c-35.723,0-71.078,20.646-94.447,37.966c-8.793,6.517-13.835,16.53-13.835,27.473c0,10.943,5.043,20.956,13.835,27.472 c23.369,17.321,58.725,37.967,94.447,37.967c39.886,0,73.606-25.775,91.17-42.351l24.642,21.473 c2.842,2.476,6.351,3.69,9.845,3.69c4.184,0,8.346-1.741,11.31-5.144C390.207,356.199,389.557,346.727,383.313,341.286z M247.8,354.786c-28.99,0-60.43-20.094-76.59-32.071c-1.481-1.098-1.702-2.588-1.702-3.379c0-0.792,0.221-2.282,1.702-3.38 c16.16-11.977,47.599-32.07,76.59-32.07c30.563,0,58.181,22.243,71.884,35.45C305.981,332.543,278.362,354.786,247.8,354.786z"/> </g> </g></symbol><symbol id="carrier-1" viewBox="0 0 512 512"><title>carrier-1</title><g> <g> <path d="M497,285.358h-4.145l-32.09-137.148c-4.787-20.459-22.805-34.748-43.816-34.748h-91.034v-3.473 c0-21.432-17.437-38.868-38.868-38.868h-62.092c-21.432,0-38.868,17.436-38.868,38.868v3.473H95.052 c-21.012,0-39.029,14.289-43.816,34.748L19.145,285.358H15c-8.284,0-15,6.716-15,15s6.716,15,15,15h5.096l30.201,94.254 c5.994,18.702,23.215,31.268,42.854,31.268H418.85c19.639,0,36.859-12.565,42.854-31.269l30.202-94.253H497 c8.284,0,15-6.716,15-15S505.284,285.358,497,285.358z M216.086,109.99c0-4.89,3.979-8.868,8.868-8.868h62.092 c4.89,0,8.868,3.978,8.868,8.868v3.473h-79.828V109.99z M433.135,400.455c-1.998,6.235-7.739,10.424-14.285,10.424H93.15 c-6.546,0-12.287-4.189-14.285-10.423l-27.267-85.099h408.805L433.135,400.455z M49.955,285.358l30.491-130.313 c1.596-6.82,7.602-11.583,14.606-11.583h321.896c7.004,0,13.01,4.763,14.605,11.583l30.491,130.313H49.955z"/> </g> </g><g> <g> <path d="M179.2,176.597c-8.284,0-15,6.716-15,15v46.529c0,8.284,6.716,15,15,15s15-6.716,15-15v-46.529 C194.2,183.313,187.484,176.597,179.2,176.597z"/> </g> </g><g> <g> <path d="M230.4,176.597c-8.284,0-15,6.716-15,15v46.529c0,8.284,6.716,15,15,15s15-6.716,15-15v-46.529 C245.4,183.313,238.684,176.597,230.4,176.597z"/> </g> </g><g> <g> <path d="M281.6,176.597c-8.284,0-15,6.716-15,15v46.529c0,8.284,6.715,15,15,15c8.284,0,15-6.716,15-15v-46.529 C296.6,183.313,289.884,176.597,281.6,176.597z"/> </g> </g><g> <g> <path d="M332.8,176.597c-8.284,0-15,6.716-15,15v46.529c0,8.284,6.716,15,15,15s15-6.716,15-15v-46.529 C347.8,183.313,341.084,176.597,332.8,176.597z"/> </g> </g></symbol><symbol id="collar" viewBox="0 0 512 512"><title>collar</title><g> <g> <path d="M415.63,81.192c-44-21.82-100.69-33.837-159.63-33.837S140.37,59.372,96.37,81.192C35.125,111.565,0,160.46,0,215.339 s35.125,103.773,96.37,134.146c9.534,4.728,19.665,8.994,30.285,12.779c0.22,9.471,3.082,18.438,8.184,26.06 c-5.313,7.937-8.205,17.331-8.205,27.236c0,27.065,22.02,49.085,49.085,49.085c21.837,0,40.389-14.332,46.742-34.085H241v0.73 c0,8.284,6.716,15,15,15s15-6.716,15-15v-0.73h18.54c6.353,19.753,24.905,34.085,46.742,34.085 c27.065,0,49.085-22.02,49.085-49.085c0-9.905-2.893-19.299-8.205-27.236c5.102-7.622,7.964-16.589,8.184-26.06 c10.619-3.785,20.751-8.051,30.285-12.779C476.875,319.113,512,270.218,512,215.339S476.875,111.565,415.63,81.192z M241,400.561 h-31.196c-8.284,0-15,6.715-15,15c0,10.523-8.562,19.085-19.085,19.085s-19.085-8.562-19.085-19.085 c0-6.046,2.777-11.607,7.62-15.257c3.76-2.834,5.972-7.27,5.972-11.979c0-4.709-2.211-9.145-5.972-11.979 c-4.843-3.649-7.62-9.21-7.62-15.257c0-10.523,8.562-19.085,19.085-19.085c10.524,0,19.085,8.562,19.085,19.085 c0,8.284,6.716,15,15,15H241V400.561z M347.747,400.304c4.843,3.649,7.62,9.21,7.62,15.257c0,10.523-8.562,19.085-19.085,19.085 c-10.524,0-19.085-8.562-19.085-19.085c0-8.284-6.716-15-15-15H271v-24.472h31.196c8.284,0,15-6.716,15-15 c0-10.523,8.562-19.085,19.085-19.085c10.524,0,19.086,8.561,19.086,19.085c0,6.046-2.777,11.607-7.62,15.257 c-3.76,2.834-5.972,7.27-5.972,11.979C341.775,393.034,343.986,397.47,347.747,400.304z M402.301,322.609 c-8.03,3.983-16.554,7.599-25.478,10.845c-8.848-12.939-23.718-21.45-40.541-21.45c-21.837,0-40.389,14.332-46.742,34.085h-18.595 c-0.564-7.77-7.031-13.902-14.945-13.902s-14.38,6.133-14.945,13.902H222.46c-6.353-19.753-24.905-34.085-46.742-34.085 c-16.824,0-31.694,8.511-40.541,21.451c-8.924-3.246-17.448-6.862-25.478-10.845C59.049,297.491,30,258.392,30,215.339 s29.049-82.152,79.699-107.271C149.637,88.262,201.594,77.354,256,77.354s106.363,10.908,146.301,30.713 C452.951,133.188,482,172.286,482,215.339S452.951,297.49,402.301,322.609z"/> </g> </g><g> <g> <path d="M386.133,140.668c-35.011-17.363-81.226-26.925-130.133-26.925s-95.123,9.562-130.133,26.925 c-38.355,19.022-59.478,45.541-59.478,74.671s21.123,55.649,59.478,74.671c35.011,17.363,81.226,26.925,130.133,26.925 s95.123-9.563,130.133-26.925c38.355-19.021,59.478-45.541,59.478-74.671S424.488,159.69,386.133,140.668z M372.804,263.133 c-30.949,15.349-72.431,23.802-116.804,23.802s-85.855-8.453-116.804-23.802c-27.205-13.492-42.807-30.912-42.807-47.794 s15.603-34.303,42.807-47.794c30.949-15.349,72.431-23.801,116.804-23.801s85.855,8.453,116.804,23.801 c27.205,13.492,42.807,30.912,42.807,47.794S400.009,249.642,372.804,263.133z"/> </g> </g></symbol><symbol id="placeholder" viewBox="0 0 512 512"><title>placeholder</title><g> <g> <path d="M256,0C156.748,0,76,80.748,76,180c0,33.534,9.289,66.26,26.869,94.652l142.885,230.257 c2.737,4.411,7.559,7.091,12.745,7.091c0.04,0,0.079,0,0.119,0c5.231-0.041,10.063-2.804,12.75-7.292L410.611,272.22 C427.221,244.428,436,212.539,436,180C436,80.748,355.252,0,256,0z M384.866,256.818L258.272,468.186l-129.905-209.34 C113.734,235.214,105.8,207.95,105.8,180c0-82.71,67.49-150.2,150.2-150.2S406.1,97.29,406.1,180 C406.1,207.121,398.689,233.688,384.866,256.818z"/> </g> </g><g> <g> <path d="M256,90c-49.626,0-90,40.374-90,90c0,49.309,39.717,90,90,90c50.903,0,90-41.233,90-90C346,130.374,305.626,90,256,90z M256,240.2c-33.257,0-60.2-27.033-60.2-60.2c0-33.084,27.116-60.2,60.2-60.2s60.1,27.116,60.1,60.2 C316.1,212.683,289.784,240.2,256,240.2z"/> </g> </g></symbol><symbol id="house" viewBox="0 0 511.999 511.999"><title>house</title><g> <g> <path d="M511.864,221.487c-0.921-11.988-6.455-22.896-15.581-30.716l-44.286-37.96V44.944c0-8.284-6.716-14.999-14.999-14.999 h-59.998c-8.284,0-14.799,6.716-14.799,14.999v30.728l-75.911-64.695c-16.97-14.539-41.603-14.537-58.519-0.043L15.728,190.769 c-18.753,16.068-21.186,44.423-4.866,63.473c12.439,14.465,32.364,19.077,49.35,13.107v229.584 c0,8.284,6.516,14.999,14.799,14.999h361.986c8.284,0,14.999-6.716,14.999-14.999V267.352c17.534,6.2,37.039,1.004,49.167-13.13 C508.983,245.094,512.784,233.468,511.864,221.487z M391.999,59.943h30.199v67.154l-30.199-25.713V59.943z M317.202,481.934 H195.007V361.738h122.195V481.934z M422.198,481.934h-75.197V346.939c0-8.284-6.716-14.999-14.999-14.999H180.007 c-8.284,0-14.799,6.716-14.799,14.999v134.995H90.011V245.775l166.943-141.613l165.245,141.473V481.934z M478.389,234.694 c-5.318,6.198-14.772,7.107-21.158,1.631L266.765,73.061c-5.595-4.797-13.845-4.817-19.464-0.05 C243.242,76.453,55.58,235.643,54.786,236.317c-6.282,5.375-15.782,4.642-21.161-1.615c-5.385-6.285-4.657-15.774,1.569-21.11 L247.238,33.756c5.66-4.848,13.874-4.849,19.53-0.002l209.994,179.795C483.04,218.929,483.767,228.419,478.389,234.694z"/> </g> </g><g> <g> <path d="M302.002,179.938h-91.996c-8.284,0-14.799,6.716-14.799,14.999v89.996c0,8.284,6.516,14.999,14.799,14.999h91.996 c8.284,0,14.999-6.716,14.999-14.999v-89.996C317.002,186.653,310.286,179.938,302.002,179.938z M287.203,269.935h-62.198v-59.998 h62.198V269.935z"/> </g> </g><g> <g> <circle cx="271.999" cy="406.934" r="14.999"/> </g> </g></symbol><symbol id="right-arrow" viewBox="0 0 330.002 330.002"><title>right-arrow</title><path id="XMLID_21_" d="M236.714,155.626l-120-149.996c-3.979-4.974-10.667-6.893-16.678-4.784 c-6.012,2.108-10.035,7.784-10.035,14.154v300c0,6.371,4.023,12.046,10.035,14.154c1.627,0.571,3.303,0.847,4.962,0.847 c4.471,0,8.813-2.003,11.716-5.631l120-150.004C241.097,168.889,241.097,161.104,236.714,155.626z M120.001,272.238V57.762 l85.791,107.235L120.001,272.238z"/></symbol><symbol id="speech-bubble" viewBox="0 0 512 512"><title>speech-bubble</title><path d="m75 274.451h82c8.284 0 15-6.716 15-15s-6.716-15-15-15h-82c-8.284 0-15 6.716-15 15s6.716 15 15 15z"/><path d="m234 304.451h-159c-8.284 0-15 6.716-15 15s6.716 15 15 15h159c8.284 0 15-6.716 15-15s-6.716-15-15-15z"/><path d="m477 45.451h-239c-19.299 0-35 15.701-35 35v94h-168c-19.299 0-35 15.701-35 35v159c0 19.299 15.701 35 35 35h38v38.054c0 9.919 5.607 18.636 14.634 22.75 3.38 1.54 6.932 2.295 10.447 2.295 5.872 0 11.64-2.107 16.322-6.178l65.467-56.92h94.13c19.299 0 35-15.701 35-35v-94h23.13l65.467 56.92c4.684 4.072 10.45 6.178 16.322 6.178 3.515 0 7.068-.755 10.447-2.295 9.026-4.113 14.634-12.83 14.634-22.75v-38.054h38c19.299 0 35-15.701 35-35v-159c0-19.3-15.701-35-35-35zm5 194c0 2.757-2.243 5-5 5h-53c-8.284 0-15 6.716-15 15v42.082l-61.419-53.401c-2.729-2.373-6.225-3.68-9.842-3.68h-99.739c-2.757 0-5-2.243-5-5v-159c0-2.757 2.243-5 5-5h239c2.757 0 5 2.243 5 5zm-208 134h-99.739c-3.617 0-7.112 1.307-9.842 3.68l-61.419 53.401v-42.082c0-8.284-6.716-15-15-15h-53c-2.757 0-5-2.243-5-5v-159c0-2.757 2.243-5 5-5h168v35c0 19.299 15.701 35 35 35h41v94c0 2.758-2.243 5.001-5 5.001z"/><path d="m278 145.451h82c8.284 0 15-6.716 15-15s-6.716-15-15-15h-82c-8.284 0-15 6.716-15 15s6.716 15 15 15z"/><path d="m437 175.451h-159c-8.284 0-15 6.716-15 15s6.716 15 15 15h159c8.284 0 15-6.716 15-15s-6.716-15-15-15z"/></symbol><symbol id="conversation" viewBox="0 0 512 512"><title>conversation</title><path d="m470.231 406.47c26.676-25.047 41.769-58.603 41.769-93.618 0-73.987-66.255-134.252-148-134.983v-96.08c0-23.054-18.756-41.81-41.81-41.81h-280.38c-23.054 0-41.81 18.756-41.81 41.81v183.141c0 23.054 18.756 41.81 41.81 41.81h36.046v47.791c0 9.654 5.396 18.271 14.081 22.488 3.508 1.703 7.248 2.541 10.96 2.541 5.479 0 10.898-1.825 15.421-5.385l85.682-67.436h9.16c-.101 2.027-.16 4.064-.16 6.113 0 74.439 67.065 135 149.5 135 6.462 0 12.94-.376 19.337-1.121 20.5 16.087 48.976 25.291 77.872 25.29 4.161 0 8.336-.19 12.492-.58 9.805-.916 17.927-7.269 21.198-16.578 3.277-9.328.907-19.385-6.185-26.246-5.526-5.349-12.346-13.064-16.983-22.147zm-73.679 13.434c-2.787-2.556-6.412-3.944-10.138-3.944-.788 0-1.581.063-2.371.188-7.064 1.131-14.313 1.704-21.543 1.704-65.893 0-119.5-47.103-119.5-105 0-2.052.075-4.09.208-6.113h78.983c23.054 0 41.81-18.756 41.81-41.81v-57.06c65.203.709 118 47.526 118 104.983 0 29.429-14.23 57.71-39.042 77.594-4.784 3.834-6.754 10.193-4.974 16.061 4.313 14.217 12.608 26.341 20.604 35.502-23.684-.277-47.182-8.482-62.037-22.105zm-207.024-139.952-81.672 64.279v-52.492c0-8.284-6.716-15-15-15h-51.046c-6.512 0-11.81-5.298-11.81-11.81v-183.14c0-6.512 5.298-11.81 11.81-11.81h280.38c6.512 0 11.81 5.298 11.81 11.81v183.141c0 6.512-5.298 11.81-11.81 11.81h-123.385c-3.365-.001-6.633 1.131-9.277 3.212z"/></symbol><symbol id="pawprint" viewBox="0 0 512.0005 512"><title>pawprint</title><path d="m423.835938 360.195312c-5.855469-5.855468-15.355469-5.859374-21.214844 0l-10.605469 10.605469-20.898437-20.898437c13.5625-18.054688 20.898437-39.90625 20.898437-62.890625 0-28.046875-10.921875-54.414063-30.753906-74.25-.90625-.90625-1.832031-1.785157-2.761719-2.652344 19.496094-6.605469 33.515625-29.769531 33.515625-58.101563 0-33.648437-19.765625-60.003906-45-60.003906s-45.003906 26.355469-45.003906 60.003906c0 12 2.527343 23.066407 6.90625 32.347657-12.992188-2.753907-26.414063-3.03125-39.492188-.828125-5.65625-8.144532-10.738281-16.710938-15.167969-25.570313l-.414062-.828125c-10.832031-21.664062-32.609375-35.125-56.835938-35.125-24.6875 0-48.332031 14.117188-58.832031 35.117188l-.421875.847656c-20.320312 40.636719-45.75 59.550781-57.804687 72.882812-12.863281 12.863282-19.945313 29.964844-19.945313 48.152344 0 44.488282 41.804688 76.769532 84.613282 66.070313 15.84375-3.960938 33.675781-6.105469 51.042968-6.195313 4.609375 8.089844 10.335938 15.617188 17.101563 22.382813 37.09375 37.09375 95.75 40.828125 137.128906 9.84375l20.910156 20.910156-10.605469 10.609375c-5.859374 5.855469-5.859374 15.355469 0 21.210938l75.003907 75.003906c17.546875 17.546875 46.09375 17.546875 63.640625 0 17.546875-17.542969 17.546875-46.09375 0-63.640625zm-76.820313-238.191406c6.113281 0 15 11.6875 15 30.003906 0 18.3125-8.886719 30-15 30-6.117187 0-15.003906-11.6875-15.003906-30 0-18.316406 8.886719-30.003906 15.003906-30.003906zm-209.671875 193.964844c-24.074219 6.015625-47.339844-12.195312-47.339844-36.964844 0-10.175781 3.964844-19.742187 11.160156-26.9375 11.5-12.785156 40.441407-34.710937 63.417969-80.671875l.425781-.847656c5.457032-10.917969 18.617188-18.539063 32-18.539063 12.789063 0 24.285157 7.101563 30.003907 18.550782l.414062.824218c3.738281 7.472657 7.898438 14.757813 12.410157 21.816407-9.769532 4.902343-18.929688 11.421875-27.074219 19.5625-26.136719 26.136719-35.667969 62.507812-28.414063 96.421875-16.136718.796875-32.300781 3.109375-47.003906 6.785156zm96.632812 24.078125c-29.308593-29.308594-29.316406-76.753906 0-106.070313 29.242188-29.242187 76.828126-29.246093 106.070313 0 14.167969 14.167969 21.96875 33 21.96875 53.035157 0 20.035156-7.800781 38.867187-21.96875 53.035156-29.242187 29.246094-76.828125 29.246094-106.070313 0zm243.648438 137.578125c-5.847656 5.851562-15.363281 5.851562-21.214844 0l-64.394531-64.394531 21.214844-21.214844 64.394531 64.394531c5.851562 5.851563 5.851562 15.367188 0 21.214844zm0 0"/><path d="m135.003906 122.003906c28.195313 0 45.003906-31.421875 45.003906-61 0-29.65625-16.90625-61.003906-45.003906-61.003906-28.191406 0-45 31.421875-45 61.003906 0 29.65625 16.90625 61 45 61zm0-92.003906c6.042969 0 15.003906 13.019531 15.003906 31.003906s-8.960937 31-15.003906 31c-6.039062 0-15-13.015625-15-31s8.960938-31.003906 15-31.003906zm0 0"/><path d="m90.003906 152.007812c0-33.648437-19.769531-60.003906-45.003906-60.003906-25.230469 0-45 26.355469-45 60.003906 0 33.644532 19.769531 60 45 60 25.234375 0 45.003906-26.355468 45.003906-60zm-60.003906 0c0-18.316406 8.886719-30.003906 15-30.003906 6.117188 0 15.003906 11.6875 15.003906 30.003906 0 18.3125-8.886718 30-15.003906 30-6.113281 0-15-11.6875-15-30zm0 0"/><path d="m257.011719 122.003906c28.191406 0 45-31.421875 45-61 0-29.65625-16.90625-61.003906-45-61.003906-28.195313 0-45.003907 31.421875-45.003907 61.003906 0 29.65625 16.910157 61 45.003907 61zm0-92.003906c6.039062 0 15 13.019531 15 31.003906s-8.960938 31-15 31c-6.042969 0-15-13.015625-15-31s8.957031-31.003906 15-31.003906zm0 0"/></symbol><symbol id="search" viewBox="0 0 511 511.9985"><title>search</title><path d="m398.296875 334.164062c-6.035156-6.035156-15.976563-5.847656-21.753906.574219l-9.519531 10.574219-23.515626-23.515625c29.273438-34.117187 46.984376-78.425781 46.984376-126.800781 0-107.519532-87.476563-194.996094-194.996094-194.996094-107.523438 0-194.996094 87.476562-194.996094 194.996094 0 107.519531 87.472656 194.996094 194.996094 194.996094 48.371094 0 92.683594-17.710938 126.800781-46.984376l24.632813 24.632813-10.574219 11.75c-5.335938 5.929687-5.101563 15 .542969 20.640625l98.773437 98.773438c17.589844 17.589843 46.042969 17.59375 63.636719 0 8.5-8.5 13.183594-19.800782 13.183594-31.816407s-4.683594-23.316406-13.183594-31.816406zm-367.796875-139.167968c0-90.980469 74.015625-164.996094 164.996094-164.996094 90.980468 0 164.996094 74.015625 164.996094 164.996094 0 90.980468-74.015626 164.996094-164.996094 164.996094-90.980469 0-164.996094-74.015626-164.996094-164.996094zm447.59375 282.597656c-5.863281 5.867188-15.339844 5.867188-21.207031 0l-88.714844-88.710938 20.09375-22.324218 89.828125 89.828125c5.847656 5.847656 5.847656 15.359375 0 21.207031zm0 0"/><path d="m195.496094 60c-74.4375 0-134.996094 60.558594-134.996094 134.996094s60.558594 134.996094 134.996094 134.996094 134.996094-60.558594 134.996094-134.996094-60.558594-134.996094-134.996094-134.996094zm0 239.996094c-57.898438 0-105-47.105469-105-105 0-57.894532 47.101562-104.996094 105-104.996094 57.894531 0 104.996094 47.101562 104.996094 104.996094 0 57.894531-47.101563 105-104.996094 105zm0 0"/><path d="m195.496094 119.996094c-24.8125 0-45 20.1875-45 45 0 8.285156 6.714844 15 15 15s15-6.714844 15-15c0-8.269532 6.726562-15 15-15 8.269531 0 15 6.730468 15 15 0 8.273437-6.730469 15-15 15-8.273438 0-14.953125 6.699218-14.96875 14.972656l-.03125 15c-.015625 8.28125 6.660156 15.011719 14.941406 15.027344h.03125c8.269531 0 14.980469-6.699219 15-14.972656l.003906-2.589844c17.472656-6.183594 30.023438-22.871094 30.023438-42.4375 0-24.8125-20.1875-45-45-45zm0 0"/><path d="m210.464844 254.996094c0 8.28125-6.714844 15-15 15-8.28125 0-15-6.71875-15-15 0-8.285156 6.71875-15 15-15 8.285156 0 15 6.714844 15 15zm0 0"/></symbol><symbol id="heart" viewBox="0 0 330.063 330.063"><title>heart</title><path d="M326.551,91.828c-5.609-22-17.583-40.984-34.626-54.899c-16.691-13.627-37.175-21.132-57.676-21.132 c-26.426,0-50.435,11.752-69.243,33.519c-18.797-21.765-42.798-33.519-69.216-33.519c-20.494,0-40.97,7.505-57.657,21.133 C21.096,50.845,9.124,69.827,3.515,91.825c-6.046,23.71-7.266,61.521,21.261,107.015c25.939,41.367,70.701,79.584,133.042,113.592 c2.239,1.221,4.711,1.832,7.184,1.832c2.472,0,4.943-0.61,7.182-1.831c62.359-34.009,107.137-72.227,133.087-113.591 C333.811,153.349,332.596,115.537,326.551,91.828z M165.003,282.115C19.895,200.327,26.863,121.673,32.584,99.239 c7.896-30.966,34.479-53.441,63.206-53.441c21.983,0,42.006,13.074,56.38,36.814c2.717,4.488,7.582,7.23,12.828,7.231 c0.001,0,0.002,0,0.003,0c5.245,0,10.11-2.74,12.828-7.227c14.388-23.743,34.425-36.818,56.419-36.818 c28.743,0,55.336,22.476,63.231,53.442C303.2,121.674,310.185,200.316,165.003,282.115z"/></symbol><symbol id="medal" viewBox="0 0 330 330"><title>medal</title><path d="M275.606,104.389L250,78.786V45c0-8.284-6.716-15-15-15h-33.787l-25.61-25.607C172.789,1.58,168.974,0,164.995,0 c-3.979,0-7.793,1.581-10.606,4.394L128.786,30H95c-8.284,0-15,6.716-15,15v33.786l-25.605,25.603 C51.581,107.202,50,111.017,50,114.995s1.58,7.794,4.393,10.606L80,151.213V185c0,8.284,6.716,15,15,15h5v115 c0,5.404,2.907,10.391,7.609,13.053c4.703,2.664,10.474,2.59,15.108-0.19L165,302.493l42.282,25.369 c2.374,1.424,5.045,2.138,7.718,2.138c2.547,0,5.097-0.648,7.391-1.947C227.093,325.391,230,320.404,230,315V200h5 c8.284,0,15-6.716,15-15v-33.787l25.607-25.611c2.813-2.813,4.393-6.628,4.393-10.606S278.419,107.202,275.606,104.389z M172.718,272.138c-4.75-2.85-10.686-2.85-15.436,0L130,288.507v-87.294l24.395,24.391c2.929,2.929,6.767,4.393,10.605,4.393 c3.839,0,7.677-1.464,10.605-4.393L200,201.213v87.294L172.718,272.138z M224.393,134.395C221.58,137.207,220,141.023,220,145v25 h-25c-3.978,0-7.793,1.58-10.605,4.393L165,193.784l-19.395-19.392C142.793,171.58,138.978,170,135,170h-25v-25 c0-3.977-1.58-7.793-4.393-10.605l-19.394-19.397l19.393-19.39C108.419,92.794,110,88.979,110,85V60h25 c3.979,0,7.794-1.581,10.607-4.395l19.39-19.393l19.397,19.395C187.207,58.42,191.023,60,195,60h25v25 c0,3.979,1.581,7.794,4.395,10.607l19.393,19.39L224.393,134.395z"/></symbol><symbol id="medal-1" viewBox="0 0 322.426 322.426"><title>medal-1</title><path d="M266.213,105.035C266.213,47.119,219.11,0,161.213,0s-105,47.119-105,105.035c0,28.534,11.454,54.44,30,73.379v129.011 c0,5.199,2.692,10.027,7.114,12.76c4.422,2.733,9.944,2.98,14.594,0.657l53.291-26.647l53.292,26.647 c2.117,1.059,4.415,1.584,6.708,1.584c2.743,0,5.478-0.752,7.886-2.24c4.422-2.733,7.114-7.561,7.114-12.76V178.415 C254.759,159.475,266.213,133.569,266.213,105.035z M161.213,30c41.355,0,75,33.661,75,75.035c0,41.336-33.645,74.965-75,74.965 s-75-33.629-75-74.965C86.213,63.661,119.858,30,161.213,30z M167.921,264.008c-4.224-2.111-9.193-2.111-13.417,0l-38.292,19.146 v-83.296c13.647,6.498,28.905,10.142,45,10.142s31.354-3.643,45-10.142v83.296L167.921,264.008z"/></symbol><symbol id="medal-2" viewBox="0 0 330 330"><title>medal-2</title><path d="M277.759,7.112C275.025,2.691,270.198,0,265,0h-70c-5.683,0-10.877,3.211-13.417,8.293l-16.581,33.171L148.416,8.292 C145.876,3.21,140.682,0,135,0H65c-5.198,0-10.025,2.691-12.759,7.112c-2.733,4.421-2.982,9.942-0.659,14.592l57.266,114.61 C79.51,154.956,60,187.741,60,225c0,57.897,47.103,105,105,105s105-47.103,105-105c0-37.259-19.51-70.044-48.847-88.685 l57.265-114.61C280.741,17.055,280.492,11.534,277.759,7.112z M125.729,30l22.506,45.01l-18.245,36.501L89.263,30H125.729z M240,225 c0,41.355-33.645,75-75,75s-75-33.645-75-75s33.645-75,75-75S240,183.645,240,225z M193.768,124.006 C184.622,121.397,174.971,120,165,120c-1.945,0-3.876,0.058-5.795,0.162L204.271,30h36.466L193.768,124.006z"/></symbol><symbol id="hearts" viewBox="0 0 512 512"><title>hearts</title><path d="M491.758,268.954c-2.058-2.264-4.248-4.358-6.53-6.314c17.733-29.272,26.395-57.878,26.395-87.024 c0-37.723-13.05-73.004-36.747-99.343c-24.784-27.548-59.133-42.718-96.72-42.718c-41.624,0-78.837,19.532-107.618,56.482 c-5.787,7.43-10.674,14.853-14.727,21.735c-4.053-6.882-8.94-14.305-14.727-21.735c-28.781-36.951-65.994-56.482-107.618-56.482 c-37.588,0-71.936,15.171-96.72,42.718C13.05,102.612,0,137.892,0,175.616c0,42.873,18.486,84.132,58.177,129.842 c35.067,40.386,84.664,82.368,142.09,130.98c14.408,12.195,29.305,24.807,44.687,37.99c3.124,2.678,6.99,4.016,10.857,4.016 c3.866,0,7.734-1.339,10.858-4.016c15.37-13.174,30.258-25.777,44.656-37.965c1.85-1.566,3.676-3.112,5.507-4.662 c8.995,7.783,18.587,15.829,28.676,24.284c7.048,5.908,14.338,12.016,21.853,18.395c3.113,2.642,6.955,3.963,10.795,3.963 s7.682-1.321,10.795-3.963c7.515-6.379,14.805-12.488,21.853-18.395C469.553,406.848,512,371.273,512,322.951 C512,302.496,504.812,283.32,491.758,268.954z M255.811,439.812c-11.625-9.913-22.948-19.5-33.986-28.842 c-56.378-47.723-105.067-88.938-138.454-127.389c-34.582-39.828-50.004-73.125-50.004-107.965 c0-61.965,43.033-108.694,100.1-108.694c31.121,0,58.279,14.429,80.721,42.887c17.75,22.509,25.74,45.64,25.808,45.837 c2.276,6.783,8.631,11.342,15.786,11.358c0.012,0,0.023,0,0.037,0c7.141,0,13.498-4.562,15.799-11.325 c0.079-0.231,8.069-23.361,25.819-45.871c22.44-28.457,49.599-42.886,80.72-42.886c57.067,0,100.1,46.729,100.1,108.694 c0,23.893-7.305,46.976-22.85,71.859c-5.573-1.324-11.364-2.026-17.307-2.026c-28.844,0-48.074,15.901-59.943,31.329 c-11.87-15.428-31.099-31.329-59.943-31.329c-20.829,0-39.885,8.347-53.659,23.506c-13.054,14.365-20.242,33.542-20.242,53.997 c0,31.755,18.334,58.006,47.578,86.247C291.179,409.801,267.425,429.908,255.811,439.812z M389.372,430.512 c-3.673,3.079-7.411,6.211-11.216,9.412c-3.806-3.2-7.543-6.333-11.216-9.412c-51.821-43.431-89.262-74.812-89.262-107.561 c0-25.163,17.426-44.137,40.535-44.137c30.68,0,43.555,35.557,44.162,37.287c2.311,6.74,8.639,11.307,15.768,11.307 c7.15,0,13.493-4.52,15.788-11.292c0.533-1.523,13.392-37.303,44.166-37.303c23.109,0,40.535,18.975,40.535,44.138 C478.633,355.702,441.193,387.082,389.372,430.512z"/></symbol><symbol id="medal-3" viewBox="0 0 512 512"><title>medal-3</title><path d="M420.267,120.361c-5.393-16.599-25.41-27.06-62.998-32.92c-14.075-2.194-27.66-3.268-36.572-3.782 c-3.127-8.338-8.166-20.944-14.419-33.67C289.522,15.884,273.549,0,256.009,0c-17.54,0-33.514,15.884-50.269,49.988 c-6.252,12.727-11.29,25.332-14.417,33.67c-8.914,0.514-22.502,1.587-36.58,3.781c-37.596,5.859-57.617,16.32-63.01,32.921 c-5.442,16.755,4.804,36.705,32.243,62.783c10.1,9.598,20.452,18.031,27.442,23.476c-2.38,8.715-5.717,22.031-8.149,36.156 c-6.53,37.915-2.967,60.374,11.215,70.678c6.851,4.979,15.573,6.698,26.516,5.118V497c0,6.067,3.654,11.537,9.26,13.858 c5.604,2.321,12.058,1.039,16.347-3.252L256,458.213l49.394,49.393c4.294,4.296,10.749,5.57,16.347,3.252 c5.605-2.322,9.26-7.792,9.26-13.858V318.573c2.625,0.38,5.126,0.576,7.5,0.576c7.529,0,13.821-1.908,19.033-5.696 c14.182-10.307,17.742-32.766,11.205-70.681c-2.436-14.124-5.774-27.439-8.156-36.154c6.99-5.445,17.344-13.877,27.441-23.474 C415.463,157.065,425.709,137.116,420.267,120.361z M301,460.787l-34.394-34.393c-5.857-5.858-15.355-5.858-21.213,0L211,460.787 V308.729c4.367-2.027,8.948-4.343,13.771-6.968c12.411-6.756,23.793-14.112,31.239-19.154 c7.446,5.042,18.827,12.398,31.237,19.155c4.817,2.623,9.39,4.93,13.753,6.956V460.787z M365.465,163.177 c-15.133,14.099-30.766,25.408-30.918,25.518c-5.239,3.773-7.476,10.479-5.553,16.643c0.059,0.188,5.917,19.071,9.72,39.933 c5.823,31.956,2.155,41.775,1.105,43.782c-2.224,0.351-12.593,0.67-40.632-14.964c-18.342-10.227-34.158-21.764-34.313-21.877 c-2.64-1.934-5.752-2.9-8.865-2.9c-3.112,0-6.226,0.967-8.864,2.899c-0.155,0.114-15.763,11.51-34.083,21.748 c-28.205,15.761-38.632,15.446-40.866,15.094c-1.051-2.007-4.72-11.827,1.099-43.783c3.78-20.765,9.598-39.569,9.711-39.931 c1.924-6.162-0.313-12.866-5.55-16.642c-0.155-0.112-15.788-11.421-30.921-25.52c-20.782-19.362-25.827-30.294-26.163-33.51 c1.378-1.509,9.153-8.219,41.389-12.948c20.802-3.052,40.407-3.513,40.599-3.517c6.331-0.136,11.896-4.236,13.905-10.242 c0.062-0.184,6.269-18.644,15.298-37.469c12.451-25.961,21.475-34.118,24.446-35.388c2.971,1.271,11.995,9.427,24.447,35.389 c9.029,18.825,15.237,37.285,15.298,37.465c2.007,6.009,7.572,10.109,13.905,10.245c0.193,0.004,19.54,0.45,40.325,3.48 c28.926,4.217,39.536,10.478,41.646,12.958C391.322,132.82,386.307,143.759,365.465,163.177z"/></symbol><symbol id="smartphone" viewBox="0 0 512 512"><title>smartphone</title><g> <g> <path d="M391,241c0-33.645-19.767-60-45-60c-5.311,0-10.375,1.18-15.069,3.338c0.043-1.104,0.069-2.216,0.069-3.338 c0-33.645-19.767-60-45-60c-11.63,0-22.093,5.608-30,14.939C248.093,126.608,237.63,121,226,121c-25.234,0-45,26.355-45,60 c0,1.121,0.025,2.233,0.069,3.338C176.375,182.18,171.311,181,166,181c-25.234,0-45,26.355-45,60 c0,28.241,13.93,51.338,33.327,58.031C152.186,304.271,151,309.999,151,316c0,24.813,20.187,45,45,45h30 c11.515,0,22.033-4.347,30-11.486c7.967,7.139,18.485,11.486,30,11.486h30c24.813,0,45-20.187,45-45 c0-6.001-1.186-11.729-3.327-16.969C377.07,292.338,391,269.241,391,241z M286,151c6.116,0,15,11.687,15,30s-8.884,30-15,30 c-6.116,0-15-11.687-15-30S279.884,151,286,151z M226,151c6.116,0,15,11.687,15,30s-8.884,30-15,30c-6.116,0-15-11.687-15-30 S219.884,151,226,151z M166,271c-6.116,0-15-11.687-15-30s8.884-30,15-30c6.116,0,15,11.687,15,30S172.116,271,166,271z M316,331 h-30c-8.271,0-15-6.729-15-15c0-8.284-6.716-15-15-15s-15,6.716-15,15c0,8.271-6.729,15-15,15h-30c-8.271,0-15-6.729-15-15 s6.729-15,15-15h2.754c4.874,0,9.444-2.368,12.255-6.35c2.811-3.982,3.511-9.081,1.879-13.673C211.618,277.403,211,274.14,211,271 c0-16.542,13.458-30,30-30h30c16.542,0,30,13.458,30,30c0,3.141-0.617,6.403-1.888,9.975c-1.633,4.593-0.932,9.692,1.879,13.674 c2.811,3.982,7.381,6.351,12.255,6.351H316c8.271,0,15,6.729,15,15S324.271,331,316,331z M346,271c-6.116,0-15-11.687-15-30 s8.884-30,15-30c6.116,0,15,11.687,15,30S352.116,271,346,271z"/> </g> </g><g> <g> <path d="M406,0H106C81.187,0,61,20.187,61,45v422c0,24.813,20.187,45,45,45h300c24.813,0,45-20.187,45-45V45 C451,20.187,430.813,0,406,0z M421,467c0,8.271-6.729,15-15,15H106c-8.271,0-15-6.729-15-15v-46h330V467z M421,391H91V90h330V391z M421,60H91V45c0-8.271,6.729-15,15-15h300c8.271,0,15,6.729,15,15V60z"/> </g> </g></symbol></svg>